<svg width="80" height="80" viewBox="0 0 80 80" fill="none" xmlns="http://www.w3.org/2000/svg">
<mask id="mask0_652_13577" style="mask-type:luminance" maskUnits="userSpaceOnUse" x="0" y="0" width="80" height="80">
<path d="M80 0H0V80H80V0Z" fill="white"/>
</mask>
<g mask="url(#mask0_652_13577)">
<path d="M80 0H0V80H80V0Z" fill="white"/>
</g>
<mask id="mask1_652_13577" style="mask-type:luminance" maskUnits="userSpaceOnUse" x="1" y="1" width="78" height="78">
<path d="M18.5383 1.73901H16.6719V3.6054H18.5383V1.73901Z" fill="white"/>
<path d="M20.4054 1.73901H18.5391V3.6054H20.4054V1.73901Z" fill="white"/>
<path d="M24.1398 1.73901H22.2734V3.6054H24.1398V1.73901Z" fill="white"/>
<path d="M33.4679 1.73901H31.6016V3.6054H33.4679V1.73901Z" fill="white"/>
<path d="M35.3351 1.73901H33.4688V3.6054H35.3351V1.73901Z" fill="white"/>
<path d="M37.2023 1.73901H35.3359V3.6054H37.2023V1.73901Z" fill="white"/>
<path d="M39.0695 1.73901H37.2031V3.6054H39.0695V1.73901Z" fill="white"/>
<path d="M40.9367 1.73901H39.0703V3.6054H40.9367V1.73901Z" fill="white"/>
<path d="M42.8039 1.73901H40.9375V3.6054H42.8039V1.73901Z" fill="white"/>
<path d="M44.6711 1.73901H42.8047V3.6054H44.6711V1.73901Z" fill="white"/>
<path d="M46.5383 1.73901H44.6719V3.6054H46.5383V1.73901Z" fill="white"/>
<path d="M48.3976 1.73901H46.5312V3.6054H48.3976V1.73901Z" fill="white"/>
<path d="M50.2648 1.73901H48.3984V3.6054H50.2648V1.73901Z" fill="white"/>
<path d="M52.132 1.73901H50.2656V3.6054H52.132V1.73901Z" fill="white"/>
<path d="M53.9992 1.73901H52.1328V3.6054H53.9992V1.73901Z" fill="white"/>
<path d="M57.7336 1.73901H55.8672V3.6054H57.7336V1.73901Z" fill="white"/>
<path d="M20.4054 3.60547H18.5391V5.47185H20.4054V3.60547Z" fill="white"/>
<path d="M22.2726 3.60547H20.4062V5.47185H22.2726V3.60547Z" fill="white"/>
<path d="M27.8742 3.60547H26.0078V5.47185H27.8742V3.60547Z" fill="white"/>
<path d="M29.7414 3.60547H27.875V5.47185H29.7414V3.60547Z" fill="white"/>
<path d="M33.4679 3.60547H31.6016V5.47185H33.4679V3.60547Z" fill="white"/>
<path d="M46.5383 3.60547H44.6719V5.47185H46.5383V3.60547Z" fill="white"/>
<path d="M50.2648 3.60547H48.3984V5.47185H50.2648V3.60547Z" fill="white"/>
<path d="M52.132 3.60547H50.2656V5.47185H52.132V3.60547Z" fill="white"/>
<path d="M53.9992 3.60547H52.1328V5.47185H53.9992V3.60547Z" fill="white"/>
<path d="M57.7336 3.60547H55.8672V5.47185H57.7336V3.60547Z" fill="white"/>
<path d="M59.6008 3.60547H57.7344V5.47185H59.6008V3.60547Z" fill="white"/>
<path d="M18.5383 5.47192H16.6719V7.33831H18.5383V5.47192Z" fill="white"/>
<path d="M20.4054 5.47192H18.5391V7.33831H20.4054V5.47192Z" fill="white"/>
<path d="M24.1398 5.47192H22.2734V7.33831H24.1398V5.47192Z" fill="white"/>
<path d="M26.007 5.47192H24.1406V7.33831H26.007V5.47192Z" fill="white"/>
<path d="M29.7414 5.47192H27.875V7.33831H29.7414V5.47192Z" fill="white"/>
<path d="M33.4679 5.47192H31.6016V7.33831H33.4679V5.47192Z" fill="white"/>
<path d="M39.0695 5.47192H37.2031V7.33831H39.0695V5.47192Z" fill="white"/>
<path d="M40.9367 5.47192H39.0703V7.33831H40.9367V5.47192Z" fill="white"/>
<path d="M42.8039 5.47192H40.9375V7.33831H42.8039V5.47192Z" fill="white"/>
<path d="M44.6711 5.47192H42.8047V7.33831H44.6711V5.47192Z" fill="white"/>
<path d="M46.5383 5.47192H44.6719V7.33831H46.5383V5.47192Z" fill="white"/>
<path d="M48.3976 5.47192H46.5312V7.33831H48.3976V5.47192Z" fill="white"/>
<path d="M52.132 5.47192H50.2656V7.33831H52.132V5.47192Z" fill="white"/>
<path d="M57.7336 5.47192H55.8672V7.33831H57.7336V5.47192Z" fill="white"/>
<path d="M61.4679 5.47192H59.6016V7.33831H61.4679V5.47192Z" fill="white"/>
<path d="M63.3351 5.47192H61.4688V7.33831H63.3351V5.47192Z" fill="white"/>
<path d="M18.5383 7.33838H16.6719V9.20476H18.5383V7.33838Z" fill="white"/>
<path d="M22.2726 7.33838H20.4062V9.20476H22.2726V7.33838Z" fill="white"/>
<path d="M26.007 7.33838H24.1406V9.20476H26.007V7.33838Z" fill="white"/>
<path d="M31.6008 7.33838H29.7344V9.20476H31.6008V7.33838Z" fill="white"/>
<path d="M33.4679 7.33838H31.6016V9.20476H33.4679V7.33838Z" fill="white"/>
<path d="M35.3351 7.33838H33.4688V9.20476H35.3351V7.33838Z" fill="white"/>
<path d="M37.2023 7.33838H35.3359V9.20476H37.2023V7.33838Z" fill="white"/>
<path d="M39.0695 7.33838H37.2031V9.20476H39.0695V7.33838Z" fill="white"/>
<path d="M42.8039 7.33838H40.9375V9.20476H42.8039V7.33838Z" fill="white"/>
<path d="M52.132 7.33838H50.2656V9.20476H52.132V7.33838Z" fill="white"/>
<path d="M59.6008 7.33838H57.7344V9.20476H59.6008V7.33838Z" fill="white"/>
<path d="M20.4054 9.20459H18.5391V11.071H20.4054V9.20459Z" fill="white"/>
<path d="M24.1398 9.20459H22.2734V11.071H24.1398V9.20459Z" fill="white"/>
<path d="M27.8742 9.20459H26.0078V11.071H27.8742V9.20459Z" fill="white"/>
<path d="M29.7414 9.20459H27.875V11.071H29.7414V9.20459Z" fill="white"/>
<path d="M35.3351 9.20459H33.4688V11.071H35.3351V9.20459Z" fill="white"/>
<path d="M39.0695 9.20459H37.2031V11.071H39.0695V9.20459Z" fill="white"/>
<path d="M42.8039 9.20459H40.9375V11.071H42.8039V9.20459Z" fill="white"/>
<path d="M46.5383 9.20459H44.6719V11.071H46.5383V9.20459Z" fill="white"/>
<path d="M52.132 9.20459H50.2656V11.071H52.132V9.20459Z" fill="white"/>
<path d="M53.9992 9.20459H52.1328V11.071H53.9992V9.20459Z" fill="white"/>
<path d="M55.8664 9.20459H54V11.071H55.8664V9.20459Z" fill="white"/>
<path d="M63.3351 9.20459H61.4688V11.071H63.3351V9.20459Z" fill="white"/>
<path d="M18.5383 11.071H16.6719V12.9374H18.5383V11.071Z" fill="white"/>
<path d="M20.4054 11.071H18.5391V12.9374H20.4054V11.071Z" fill="white"/>
<path d="M24.1398 11.071H22.2734V12.9374H24.1398V11.071Z" fill="white"/>
<path d="M29.7414 11.071H27.875V12.9374H29.7414V11.071Z" fill="white"/>
<path d="M31.6008 11.071H29.7344V12.9374H31.6008V11.071Z" fill="white"/>
<path d="M35.3351 11.071H33.4688V12.9374H35.3351V11.071Z" fill="white"/>
<path d="M44.6711 11.071H42.8047V12.9374H44.6711V11.071Z" fill="white"/>
<path d="M48.3976 11.071H46.5312V12.9374H48.3976V11.071Z" fill="white"/>
<path d="M50.2648 11.071H48.3984V12.9374H50.2648V11.071Z" fill="white"/>
<path d="M52.132 11.071H50.2656V12.9374H52.132V11.071Z" fill="white"/>
<path d="M53.9992 11.071H52.1328V12.9374H53.9992V11.071Z" fill="white"/>
<path d="M55.8664 11.071H54V12.9374H55.8664V11.071Z" fill="white"/>
<path d="M61.4679 11.071H59.6016V12.9374H61.4679V11.071Z" fill="white"/>
<path d="M18.5383 12.9375H16.6719V14.8039H18.5383V12.9375Z" fill="white"/>
<path d="M22.2726 12.9375H20.4062V14.8039H22.2726V12.9375Z" fill="white"/>
<path d="M26.007 12.9375H24.1406V14.8039H26.007V12.9375Z" fill="white"/>
<path d="M29.7414 12.9375H27.875V14.8039H29.7414V12.9375Z" fill="white"/>
<path d="M33.4679 12.9375H31.6016V14.8039H33.4679V12.9375Z" fill="white"/>
<path d="M37.2023 12.9375H35.3359V14.8039H37.2023V12.9375Z" fill="white"/>
<path d="M40.9367 12.9375H39.0703V14.8039H40.9367V12.9375Z" fill="white"/>
<path d="M44.6711 12.9375H42.8047V14.8039H44.6711V12.9375Z" fill="white"/>
<path d="M48.3976 12.9375H46.5312V14.8039H48.3976V12.9375Z" fill="white"/>
<path d="M52.132 12.9375H50.2656V14.8039H52.132V12.9375Z" fill="white"/>
<path d="M55.8664 12.9375H54V14.8039H55.8664V12.9375Z" fill="white"/>
<path d="M59.6008 12.9375H57.7344V14.8039H59.6008V12.9375Z" fill="white"/>
<path d="M63.3351 12.9375H61.4688V14.8039H63.3351V12.9375Z" fill="white"/>
<path d="M18.5383 14.804H16.6719V16.6703H18.5383V14.804Z" fill="white"/>
<path d="M22.2726 14.804H20.4062V16.6703H22.2726V14.804Z" fill="white"/>
<path d="M27.8742 14.804H26.0078V16.6703H27.8742V14.804Z" fill="white"/>
<path d="M29.7414 14.804H27.875V16.6703H29.7414V14.804Z" fill="white"/>
<path d="M31.6008 14.804H29.7344V16.6703H31.6008V14.804Z" fill="white"/>
<path d="M39.0695 14.804H37.2031V16.6703H39.0695V14.804Z" fill="white"/>
<path d="M40.9367 14.804H39.0703V16.6703H40.9367V14.804Z" fill="white"/>
<path d="M46.5383 14.804H44.6719V16.6703H46.5383V14.804Z" fill="white"/>
<path d="M52.132 14.804H50.2656V16.6703H52.132V14.804Z" fill="white"/>
<path d="M53.9992 14.804H52.1328V16.6703H53.9992V14.804Z" fill="white"/>
<path d="M55.8664 14.804H54V16.6703H55.8664V14.804Z" fill="white"/>
<path d="M57.7336 14.804H55.8672V16.6703H57.7336V14.804Z" fill="white"/>
<path d="M63.3351 14.804H61.4688V16.6703H63.3351V14.804Z" fill="white"/>
<path d="M5.47576 16.6702H3.60938V18.5365H5.47576V16.6702Z" fill="white"/>
<path d="M9.21013 16.6702H7.34375V18.5365H9.21013V16.6702Z" fill="white"/>
<path d="M12.9367 16.6702H11.0703V18.5365H12.9367V16.6702Z" fill="white"/>
<path d="M14.8039 16.6702H12.9375V18.5365H14.8039V16.6702Z" fill="white"/>
<path d="M16.6711 16.6702H14.8047V18.5365H16.6711V16.6702Z" fill="white"/>
<path d="M18.5383 16.6702H16.6719V18.5365H18.5383V16.6702Z" fill="white"/>
<path d="M24.1398 16.6702H22.2734V18.5365H24.1398V16.6702Z" fill="white"/>
<path d="M26.007 16.6702H24.1406V18.5365H26.007V16.6702Z" fill="white"/>
<path d="M27.8742 16.6702H26.0078V18.5365H27.8742V16.6702Z" fill="white"/>
<path d="M29.7414 16.6702H27.875V18.5365H29.7414V16.6702Z" fill="white"/>
<path d="M31.6008 16.6702H29.7344V18.5365H31.6008V16.6702Z" fill="white"/>
<path d="M33.4679 16.6702H31.6016V18.5365H33.4679V16.6702Z" fill="white"/>
<path d="M37.2023 16.6702H35.3359V18.5365H37.2023V16.6702Z" fill="white"/>
<path d="M39.0695 16.6702H37.2031V18.5365H39.0695V16.6702Z" fill="white"/>
<path d="M50.2648 16.6702H48.3984V18.5365H50.2648V16.6702Z" fill="white"/>
<path d="M52.132 16.6702H50.2656V18.5365H52.132V16.6702Z" fill="white"/>
<path d="M55.8664 16.6702H54V18.5365H55.8664V16.6702Z" fill="white"/>
<path d="M63.3351 16.6702H61.4688V18.5365H63.3351V16.6702Z" fill="white"/>
<path d="M65.2023 16.6702H63.3359V18.5365H65.2023V16.6702Z" fill="white"/>
<path d="M67.0695 16.6702H65.2031V18.5365H67.0695V16.6702Z" fill="white"/>
<path d="M68.9289 16.6702H67.0625V18.5365H68.9289V16.6702Z" fill="white"/>
<path d="M72.6633 16.6702H70.7969V18.5365H72.6633V16.6702Z" fill="white"/>
<path d="M74.5304 16.6702H72.6641V18.5365H74.5304V16.6702Z" fill="white"/>
<path d="M78.2648 16.6702H76.3984V18.5365H78.2648V16.6702Z" fill="white"/>
<path d="M5.47576 18.5366H3.60938V20.403H5.47576V18.5366Z" fill="white"/>
<path d="M7.34295 18.5366H5.47656V20.403H7.34295V18.5366Z" fill="white"/>
<path d="M11.0773 18.5366H9.21094V20.403H11.0773V18.5366Z" fill="white"/>
<path d="M12.9367 18.5366H11.0703V20.403H12.9367V18.5366Z" fill="white"/>
<path d="M16.6711 18.5366H14.8047V20.403H16.6711V18.5366Z" fill="white"/>
<path d="M22.2726 18.5366H20.4062V20.403H22.2726V18.5366Z" fill="white"/>
<path d="M26.007 18.5366H24.1406V20.403H26.007V18.5366Z" fill="white"/>
<path d="M35.3351 18.5366H33.4688V20.403H35.3351V18.5366Z" fill="white"/>
<path d="M44.6711 18.5366H42.8047V20.403H44.6711V18.5366Z" fill="white"/>
<path d="M46.5383 18.5366H44.6719V20.403H46.5383V18.5366Z" fill="white"/>
<path d="M55.8664 18.5366H54V20.403H55.8664V18.5366Z" fill="white"/>
<path d="M59.6008 18.5366H57.7344V20.403H59.6008V18.5366Z" fill="white"/>
<path d="M63.3351 18.5366H61.4688V20.403H63.3351V18.5366Z" fill="white"/>
<path d="M65.2023 18.5366H63.3359V20.403H65.2023V18.5366Z" fill="white"/>
<path d="M67.0695 18.5366H65.2031V20.403H67.0695V18.5366Z" fill="white"/>
<path d="M72.6633 18.5366H70.7969V20.403H72.6633V18.5366Z" fill="white"/>
<path d="M74.5304 18.5366H72.6641V20.403H74.5304V18.5366Z" fill="white"/>
<path d="M78.2648 18.5366H76.3984V20.403H78.2648V18.5366Z" fill="white"/>
<path d="M5.47576 20.4031H3.60938V22.2695H5.47576V20.4031Z" fill="white"/>
<path d="M11.0773 20.4031H9.21094V22.2695H11.0773V20.4031Z" fill="white"/>
<path d="M14.8039 20.4031H12.9375V22.2695H14.8039V20.4031Z" fill="white"/>
<path d="M20.4054 20.4031H18.5391V22.2695H20.4054V20.4031Z" fill="white"/>
<path d="M22.2726 20.4031H20.4062V22.2695H22.2726V20.4031Z" fill="white"/>
<path d="M24.1398 20.4031H22.2734V22.2695H24.1398V20.4031Z" fill="white"/>
<path d="M26.007 20.4031H24.1406V22.2695H26.007V20.4031Z" fill="white"/>
<path d="M27.8742 20.4031H26.0078V22.2695H27.8742V20.4031Z" fill="white"/>
<path d="M29.7414 20.4031H27.875V22.2695H29.7414V20.4031Z" fill="white"/>
<path d="M31.6008 20.4031H29.7344V22.2695H31.6008V20.4031Z" fill="white"/>
<path d="M35.3351 20.4031H33.4688V22.2695H35.3351V20.4031Z" fill="white"/>
<path d="M44.6711 20.4031H42.8047V22.2695H44.6711V20.4031Z" fill="white"/>
<path d="M50.2648 20.4031H48.3984V22.2695H50.2648V20.4031Z" fill="white"/>
<path d="M57.7336 20.4031H55.8672V22.2695H57.7336V20.4031Z" fill="white"/>
<path d="M61.4679 20.4031H59.6016V22.2695H61.4679V20.4031Z" fill="white"/>
<path d="M67.0695 20.4031H65.2031V22.2695H67.0695V20.4031Z" fill="white"/>
<path d="M68.9289 20.4031H67.0625V22.2695H68.9289V20.4031Z" fill="white"/>
<path d="M70.7961 20.4031H68.9297V22.2695H70.7961V20.4031Z" fill="white"/>
<path d="M72.6633 20.4031H70.7969V22.2695H72.6633V20.4031Z" fill="white"/>
<path d="M74.5304 20.4031H72.6641V22.2695H74.5304V20.4031Z" fill="white"/>
<path d="M76.3976 20.4031H74.5312V22.2695H76.3976V20.4031Z" fill="white"/>
<path d="M9.21013 22.2693H7.34375V24.1357H9.21013V22.2693Z" fill="white"/>
<path d="M11.0773 22.2693H9.21094V24.1357H11.0773V22.2693Z" fill="white"/>
<path d="M12.9367 22.2693H11.0703V24.1357H12.9367V22.2693Z" fill="white"/>
<path d="M24.1398 22.2693H22.2734V24.1357H24.1398V22.2693Z" fill="white"/>
<path d="M26.007 22.2693H24.1406V24.1357H26.007V22.2693Z" fill="white"/>
<path d="M31.6008 22.2693H29.7344V24.1357H31.6008V22.2693Z" fill="white"/>
<path d="M35.3351 22.2693H33.4688V24.1357H35.3351V22.2693Z" fill="white"/>
<path d="M37.2023 22.2693H35.3359V24.1357H37.2023V22.2693Z" fill="white"/>
<path d="M39.0695 22.2693H37.2031V24.1357H39.0695V22.2693Z" fill="white"/>
<path d="M50.2648 22.2693H48.3984V24.1357H50.2648V22.2693Z" fill="white"/>
<path d="M52.132 22.2693H50.2656V24.1357H52.132V22.2693Z" fill="white"/>
<path d="M53.9992 22.2693H52.1328V24.1357H53.9992V22.2693Z" fill="white"/>
<path d="M55.8664 22.2693H54V24.1357H55.8664V22.2693Z" fill="white"/>
<path d="M59.6008 22.2693H57.7344V24.1357H59.6008V22.2693Z" fill="white"/>
<path d="M68.9289 22.2693H67.0625V24.1357H68.9289V22.2693Z" fill="white"/>
<path d="M70.7961 22.2693H68.9297V24.1357H70.7961V22.2693Z" fill="white"/>
<path d="M74.5304 22.2693H72.6641V24.1357H74.5304V22.2693Z" fill="white"/>
<path d="M7.34295 24.1357H5.47656V26.0021H7.34295V24.1357Z" fill="white"/>
<path d="M11.0773 24.1357H9.21094V26.0021H11.0773V24.1357Z" fill="white"/>
<path d="M14.8039 24.1357H12.9375V26.0021H14.8039V24.1357Z" fill="white"/>
<path d="M20.4054 24.1357H18.5391V26.0021H20.4054V24.1357Z" fill="white"/>
<path d="M24.1398 24.1357H22.2734V26.0021H24.1398V24.1357Z" fill="white"/>
<path d="M27.8742 24.1357H26.0078V26.0021H27.8742V24.1357Z" fill="white"/>
<path d="M31.6008 24.1357H29.7344V26.0021H31.6008V24.1357Z" fill="white"/>
<path d="M33.4679 24.1357H31.6016V26.0021H33.4679V24.1357Z" fill="white"/>
<path d="M39.0695 24.1357H37.2031V26.0021H39.0695V24.1357Z" fill="white"/>
<path d="M48.3976 24.1357H46.5312V26.0021H48.3976V24.1357Z" fill="white"/>
<path d="M50.2648 24.1357H48.3984V26.0021H50.2648V24.1357Z" fill="white"/>
<path d="M57.7336 24.1357H55.8672V26.0021H57.7336V24.1357Z" fill="white"/>
<path d="M61.4679 24.1357H59.6016V26.0021H61.4679V24.1357Z" fill="white"/>
<path d="M63.3351 24.1357H61.4688V26.0021H63.3351V24.1357Z" fill="white"/>
<path d="M65.2023 24.1357H63.3359V26.0021H65.2023V24.1357Z" fill="white"/>
<path d="M67.0695 24.1357H65.2031V26.0021H67.0695V24.1357Z" fill="white"/>
<path d="M68.9289 24.1357H67.0625V26.0021H68.9289V24.1357Z" fill="white"/>
<path d="M72.6633 24.1357H70.7969V26.0021H72.6633V24.1357Z" fill="white"/>
<path d="M76.3976 24.1357H74.5312V26.0021H76.3976V24.1357Z" fill="white"/>
<path d="M78.2648 24.1357H76.3984V26.0021H78.2648V24.1357Z" fill="white"/>
<path d="M3.60857 26.0022H1.74219V27.8686H3.60857V26.0022Z" fill="white"/>
<path d="M5.47576 26.0022H3.60938V27.8686H5.47576V26.0022Z" fill="white"/>
<path d="M7.34295 26.0022H5.47656V27.8686H7.34295V26.0022Z" fill="white"/>
<path d="M9.21013 26.0022H7.34375V27.8686H9.21013V26.0022Z" fill="white"/>
<path d="M16.6711 26.0022H14.8047V27.8686H16.6711V26.0022Z" fill="white"/>
<path d="M18.5383 26.0022H16.6719V27.8686H18.5383V26.0022Z" fill="white"/>
<path d="M20.4054 26.0022H18.5391V27.8686H20.4054V26.0022Z" fill="white"/>
<path d="M22.2726 26.0022H20.4062V27.8686H22.2726V26.0022Z" fill="white"/>
<path d="M24.1398 26.0022H22.2734V27.8686H24.1398V26.0022Z" fill="white"/>
<path d="M26.007 26.0022H24.1406V27.8686H26.007V26.0022Z" fill="white"/>
<path d="M27.8742 26.0022H26.0078V27.8686H27.8742V26.0022Z" fill="white"/>
<path d="M29.7414 26.0022H27.875V27.8686H29.7414V26.0022Z" fill="white"/>
<path d="M35.3351 26.0022H33.4688V27.8686H35.3351V26.0022Z" fill="white"/>
<path d="M37.2023 26.0022H35.3359V27.8686H37.2023V26.0022Z" fill="white"/>
<path d="M39.0695 26.0022H37.2031V27.8686H39.0695V26.0022Z" fill="white"/>
<path d="M42.8039 26.0022H40.9375V27.8686H42.8039V26.0022Z" fill="white"/>
<path d="M44.6711 26.0022H42.8047V27.8686H44.6711V26.0022Z" fill="white"/>
<path d="M46.5383 26.0022H44.6719V27.8686H46.5383V26.0022Z" fill="white"/>
<path d="M53.9992 26.0022H52.1328V27.8686H53.9992V26.0022Z" fill="white"/>
<path d="M61.4679 26.0022H59.6016V27.8686H61.4679V26.0022Z" fill="white"/>
<path d="M3.60857 27.8684H1.74219V29.7348H3.60857V27.8684Z" fill="white"/>
<path d="M9.21013 27.8684H7.34375V29.7348H9.21013V27.8684Z" fill="white"/>
<path d="M12.9367 27.8684H11.0703V29.7348H12.9367V27.8684Z" fill="white"/>
<path d="M14.8039 27.8684H12.9375V29.7348H14.8039V27.8684Z" fill="white"/>
<path d="M27.8742 27.8684H26.0078V29.7348H27.8742V27.8684Z" fill="white"/>
<path d="M29.7414 27.8684H27.875V29.7348H29.7414V27.8684Z" fill="white"/>
<path d="M31.6008 27.8684H29.7344V29.7348H31.6008V27.8684Z" fill="white"/>
<path d="M33.4679 27.8684H31.6016V29.7348H33.4679V27.8684Z" fill="white"/>
<path d="M35.3351 27.8684H33.4688V29.7348H35.3351V27.8684Z" fill="white"/>
<path d="M39.0695 27.8684H37.2031V29.7348H39.0695V27.8684Z" fill="white"/>
<path d="M40.9367 27.8684H39.0703V29.7348H40.9367V27.8684Z" fill="white"/>
<path d="M42.8039 27.8684H40.9375V29.7348H42.8039V27.8684Z" fill="white"/>
<path d="M44.6711 27.8684H42.8047V29.7348H44.6711V27.8684Z" fill="white"/>
<path d="M46.5383 27.8684H44.6719V29.7348H46.5383V27.8684Z" fill="white"/>
<path d="M48.3976 27.8684H46.5312V29.7348H48.3976V27.8684Z" fill="white"/>
<path d="M50.2648 27.8684H48.3984V29.7348H50.2648V27.8684Z" fill="white"/>
<path d="M67.0695 27.8684H65.2031V29.7348H67.0695V27.8684Z" fill="white"/>
<path d="M70.7961 27.8684H68.9297V29.7348H70.7961V27.8684Z" fill="white"/>
<path d="M72.6633 27.8684H70.7969V29.7348H72.6633V27.8684Z" fill="white"/>
<path d="M76.3976 27.8684H74.5312V29.7348H76.3976V27.8684Z" fill="white"/>
<path d="M78.2648 27.8684H76.3984V29.7348H78.2648V27.8684Z" fill="white"/>
<path d="M7.34295 29.7349H5.47656V31.6012H7.34295V29.7349Z" fill="white"/>
<path d="M9.21013 29.7349H7.34375V31.6012H9.21013V29.7349Z" fill="white"/>
<path d="M12.9367 29.7349H11.0703V31.6012H12.9367V29.7349Z" fill="white"/>
<path d="M16.6711 29.7349H14.8047V31.6012H16.6711V29.7349Z" fill="white"/>
<path d="M18.5383 29.7349H16.6719V31.6012H18.5383V29.7349Z" fill="white"/>
<path d="M20.4054 29.7349H18.5391V31.6012H20.4054V29.7349Z" fill="white"/>
<path d="M22.2726 29.7349H20.4062V31.6012H22.2726V29.7349Z" fill="white"/>
<path d="M26.007 29.7349H24.1406V31.6012H26.007V29.7349Z" fill="white"/>
<path d="M27.8742 29.7349H26.0078V31.6012H27.8742V29.7349Z" fill="white"/>
<path d="M29.7414 29.7349H27.875V31.6012H29.7414V29.7349Z" fill="white"/>
<path d="M37.2023 29.7349H35.3359V31.6012H37.2023V29.7349Z" fill="white"/>
<path d="M39.0695 29.7349H37.2031V31.6012H39.0695V29.7349Z" fill="white"/>
<path d="M44.6711 29.7349H42.8047V31.6012H44.6711V29.7349Z" fill="white"/>
<path d="M46.5383 29.7349H44.6719V31.6012H46.5383V29.7349Z" fill="white"/>
<path d="M48.3976 29.7349H46.5312V31.6012H48.3976V29.7349Z" fill="white"/>
<path d="M50.2648 29.7349H48.3984V31.6012H50.2648V29.7349Z" fill="white"/>
<path d="M52.132 29.7349H50.2656V31.6012H52.132V29.7349Z" fill="white"/>
<path d="M53.9992 29.7349H52.1328V31.6012H53.9992V29.7349Z" fill="white"/>
<path d="M55.8664 29.7349H54V31.6012H55.8664V29.7349Z" fill="white"/>
<path d="M57.7336 29.7349H55.8672V31.6012H57.7336V29.7349Z" fill="white"/>
<path d="M59.6008 29.7349H57.7344V31.6012H59.6008V29.7349Z" fill="white"/>
<path d="M61.4679 29.7349H59.6016V31.6012H61.4679V29.7349Z" fill="white"/>
<path d="M63.3351 29.7349H61.4688V31.6012H63.3351V29.7349Z" fill="white"/>
<path d="M67.0695 29.7349H65.2031V31.6012H67.0695V29.7349Z" fill="white"/>
<path d="M76.3976 29.7349H74.5312V31.6012H76.3976V29.7349Z" fill="white"/>
<path d="M78.2648 29.7349H76.3984V31.6012H78.2648V29.7349Z" fill="white"/>
<path d="M3.60857 31.6013H1.74219V33.4677H3.60857V31.6013Z" fill="white"/>
<path d="M11.0773 31.6013H9.21094V33.4677H11.0773V31.6013Z" fill="white"/>
<path d="M14.8039 31.6013H12.9375V33.4677H14.8039V31.6013Z" fill="white"/>
<path d="M18.5383 31.6013H16.6719V33.4677H18.5383V31.6013Z" fill="white"/>
<path d="M22.2726 31.6013H20.4062V33.4677H22.2726V31.6013Z" fill="white"/>
<path d="M29.7414 31.6013H27.875V33.4677H29.7414V31.6013Z" fill="white"/>
<path d="M31.6008 31.6013H29.7344V33.4677H31.6008V31.6013Z" fill="white"/>
<path d="M35.3351 31.6013H33.4688V33.4677H35.3351V31.6013Z" fill="white"/>
<path d="M37.2023 31.6013H35.3359V33.4677H37.2023V31.6013Z" fill="white"/>
<path d="M57.7336 31.6013H55.8672V33.4677H57.7336V31.6013Z" fill="white"/>
<path d="M61.4679 31.6013H59.6016V33.4677H61.4679V31.6013Z" fill="white"/>
<path d="M63.3351 31.6013H61.4688V33.4677H63.3351V31.6013Z" fill="white"/>
<path d="M68.9289 31.6013H67.0625V33.4677H68.9289V31.6013Z" fill="white"/>
<path d="M72.6633 31.6013H70.7969V33.4677H72.6633V31.6013Z" fill="white"/>
<path d="M76.3976 31.6013H74.5312V33.4677H76.3976V31.6013Z" fill="white"/>
<path d="M12.9367 33.4675H11.0703V35.3339H12.9367V33.4675Z" fill="white"/>
<path d="M18.5383 33.4675H16.6719V35.3339H18.5383V33.4675Z" fill="white"/>
<path d="M20.4054 33.4675H18.5391V35.3339H20.4054V33.4675Z" fill="white"/>
<path d="M22.2726 33.4675H20.4062V35.3339H22.2726V33.4675Z" fill="white"/>
<path d="M24.1398 33.4675H22.2734V35.3339H24.1398V33.4675Z" fill="white"/>
<path d="M26.007 33.4675H24.1406V35.3339H26.007V33.4675Z" fill="white"/>
<path d="M29.7414 33.4675H27.875V35.3339H29.7414V33.4675Z" fill="white"/>
<path d="M31.6008 33.4675H29.7344V35.3339H31.6008V33.4675Z" fill="white"/>
<path d="M40.9367 33.4675H39.0703V35.3339H40.9367V33.4675Z" fill="white"/>
<path d="M44.6711 33.4675H42.8047V35.3339H44.6711V33.4675Z" fill="white"/>
<path d="M46.5383 33.4675H44.6719V35.3339H46.5383V33.4675Z" fill="white"/>
<path d="M48.3976 33.4675H46.5312V35.3339H48.3976V33.4675Z" fill="white"/>
<path d="M50.2648 33.4675H48.3984V35.3339H50.2648V33.4675Z" fill="white"/>
<path d="M52.132 33.4675H50.2656V35.3339H52.132V33.4675Z" fill="white"/>
<path d="M67.0695 33.4675H65.2031V35.3339H67.0695V33.4675Z" fill="white"/>
<path d="M68.9289 33.4675H67.0625V35.3339H68.9289V33.4675Z" fill="white"/>
<path d="M72.6633 33.4675H70.7969V35.3339H72.6633V33.4675Z" fill="white"/>
<path d="M74.5304 33.4675H72.6641V35.3339H74.5304V33.4675Z" fill="white"/>
<path d="M76.3976 33.4675H74.5312V35.3339H76.3976V33.4675Z" fill="white"/>
<path d="M78.2648 33.4675H76.3984V35.3339H78.2648V33.4675Z" fill="white"/>
<path d="M3.60857 35.334H1.74219V37.2004H3.60857V35.334Z" fill="white"/>
<path d="M5.47576 35.334H3.60938V37.2004H5.47576V35.334Z" fill="white"/>
<path d="M9.21013 35.334H7.34375V37.2004H9.21013V35.334Z" fill="white"/>
<path d="M14.8039 35.334H12.9375V37.2004H14.8039V35.334Z" fill="white"/>
<path d="M16.6711 35.334H14.8047V37.2004H16.6711V35.334Z" fill="white"/>
<path d="M18.5383 35.334H16.6719V37.2004H18.5383V35.334Z" fill="white"/>
<path d="M24.1398 35.334H22.2734V37.2004H24.1398V35.334Z" fill="white"/>
<path d="M26.007 35.334H24.1406V37.2004H26.007V35.334Z" fill="white"/>
<path d="M27.8742 35.334H26.0078V37.2004H27.8742V35.334Z" fill="white"/>
<path d="M31.6008 35.334H29.7344V37.2004H31.6008V35.334Z" fill="white"/>
<path d="M33.4679 35.334H31.6016V37.2004H33.4679V35.334Z" fill="white"/>
<path d="M35.3351 35.334H33.4688V37.2004H35.3351V35.334Z" fill="white"/>
<path d="M39.0695 35.334H37.2031V37.2004H39.0695V35.334Z" fill="white"/>
<path d="M42.8039 35.334H40.9375V37.2004H42.8039V35.334Z" fill="white"/>
<path d="M44.6711 35.334H42.8047V37.2004H44.6711V35.334Z" fill="white"/>
<path d="M48.3976 35.334H46.5312V37.2004H48.3976V35.334Z" fill="white"/>
<path d="M50.2648 35.334H48.3984V37.2004H50.2648V35.334Z" fill="white"/>
<path d="M52.132 35.334H50.2656V37.2004H52.132V35.334Z" fill="white"/>
<path d="M55.8664 35.334H54V37.2004H55.8664V35.334Z" fill="white"/>
<path d="M59.6008 35.334H57.7344V37.2004H59.6008V35.334Z" fill="white"/>
<path d="M70.7961 35.334H68.9297V37.2004H70.7961V35.334Z" fill="white"/>
<path d="M76.3976 35.334H74.5312V37.2004H76.3976V35.334Z" fill="white"/>
<path d="M78.2648 35.334H76.3984V37.2004H78.2648V35.334Z" fill="white"/>
<path d="M5.47576 37.2004H3.60938V39.0668H5.47576V37.2004Z" fill="white"/>
<path d="M7.34295 37.2004H5.47656V39.0668H7.34295V37.2004Z" fill="white"/>
<path d="M9.21013 37.2004H7.34375V39.0668H9.21013V37.2004Z" fill="white"/>
<path d="M11.0773 37.2004H9.21094V39.0668H11.0773V37.2004Z" fill="white"/>
<path d="M24.1398 37.2004H22.2734V39.0668H24.1398V37.2004Z" fill="white"/>
<path d="M26.007 37.2004H24.1406V39.0668H26.007V37.2004Z" fill="white"/>
<path d="M27.8742 37.2004H26.0078V39.0668H27.8742V37.2004Z" fill="white"/>
<path d="M29.7414 37.2004H27.875V39.0668H29.7414V37.2004Z" fill="white"/>
<path d="M35.3351 37.2004H33.4688V39.0668H35.3351V37.2004Z" fill="white"/>
<path d="M39.0695 37.2004H37.2031V39.0668H39.0695V37.2004Z" fill="white"/>
<path d="M40.9367 37.2004H39.0703V39.0668H40.9367V37.2004Z" fill="white"/>
<path d="M42.8039 37.2004H40.9375V39.0668H42.8039V37.2004Z" fill="white"/>
<path d="M44.6711 37.2004H42.8047V39.0668H44.6711V37.2004Z" fill="white"/>
<path d="M52.132 37.2004H50.2656V39.0668H52.132V37.2004Z" fill="white"/>
<path d="M53.9992 37.2004H52.1328V39.0668H53.9992V37.2004Z" fill="white"/>
<path d="M57.7336 37.2004H55.8672V39.0668H57.7336V37.2004Z" fill="white"/>
<path d="M65.2023 37.2004H63.3359V39.0668H65.2023V37.2004Z" fill="white"/>
<path d="M67.0695 37.2004H65.2031V39.0668H67.0695V37.2004Z" fill="white"/>
<path d="M68.9289 37.2004H67.0625V39.0668H68.9289V37.2004Z" fill="white"/>
<path d="M72.6633 37.2004H70.7969V39.0668H72.6633V37.2004Z" fill="white"/>
<path d="M78.2648 37.2004H76.3984V39.0668H78.2648V37.2004Z" fill="white"/>
<path d="M14.8039 39.0669H12.9375V40.9333H14.8039V39.0669Z" fill="white"/>
<path d="M16.6711 39.0669H14.8047V40.9333H16.6711V39.0669Z" fill="white"/>
<path d="M20.4054 39.0669H18.5391V40.9333H20.4054V39.0669Z" fill="white"/>
<path d="M22.2726 39.0669H20.4062V40.9333H22.2726V39.0669Z" fill="white"/>
<path d="M24.1398 39.0669H22.2734V40.9333H24.1398V39.0669Z" fill="white"/>
<path d="M26.007 39.0669H24.1406V40.9333H26.007V39.0669Z" fill="white"/>
<path d="M29.7414 39.0669H27.875V40.9333H29.7414V39.0669Z" fill="white"/>
<path d="M31.6008 39.0669H29.7344V40.9333H31.6008V39.0669Z" fill="white"/>
<path d="M33.4679 39.0669H31.6016V40.9333H33.4679V39.0669Z" fill="white"/>
<path d="M35.3351 39.0669H33.4688V40.9333H35.3351V39.0669Z" fill="white"/>
<path d="M39.0695 39.0669H37.2031V40.9333H39.0695V39.0669Z" fill="white"/>
<path d="M44.6711 39.0669H42.8047V40.9333H44.6711V39.0669Z" fill="white"/>
<path d="M46.5383 39.0669H44.6719V40.9333H46.5383V39.0669Z" fill="white"/>
<path d="M50.2648 39.0669H48.3984V40.9333H50.2648V39.0669Z" fill="white"/>
<path d="M52.132 39.0669H50.2656V40.9333H52.132V39.0669Z" fill="white"/>
<path d="M53.9992 39.0669H52.1328V40.9333H53.9992V39.0669Z" fill="white"/>
<path d="M55.8664 39.0669H54V40.9333H55.8664V39.0669Z" fill="white"/>
<path d="M61.4679 39.0669H59.6016V40.9333H61.4679V39.0669Z" fill="white"/>
<path d="M63.3351 39.0669H61.4688V40.9333H63.3351V39.0669Z" fill="white"/>
<path d="M67.0695 39.0669H65.2031V40.9333H67.0695V39.0669Z" fill="white"/>
<path d="M68.9289 39.0669H67.0625V40.9333H68.9289V39.0669Z" fill="white"/>
<path d="M74.5304 39.0669H72.6641V40.9333H74.5304V39.0669Z" fill="white"/>
<path d="M3.60857 40.9331H1.74219V42.7995H3.60857V40.9331Z" fill="white"/>
<path d="M5.47576 40.9331H3.60938V42.7995H5.47576V40.9331Z" fill="white"/>
<path d="M12.9367 40.9331H11.0703V42.7995H12.9367V40.9331Z" fill="white"/>
<path d="M16.6711 40.9331H14.8047V42.7995H16.6711V40.9331Z" fill="white"/>
<path d="M18.5383 40.9331H16.6719V42.7995H18.5383V40.9331Z" fill="white"/>
<path d="M20.4054 40.9331H18.5391V42.7995H20.4054V40.9331Z" fill="white"/>
<path d="M27.8742 40.9331H26.0078V42.7995H27.8742V40.9331Z" fill="white"/>
<path d="M33.4679 40.9331H31.6016V42.7995H33.4679V40.9331Z" fill="white"/>
<path d="M35.3351 40.9331H33.4688V42.7995H35.3351V40.9331Z" fill="white"/>
<path d="M37.2023 40.9331H35.3359V42.7995H37.2023V40.9331Z" fill="white"/>
<path d="M39.0695 40.9331H37.2031V42.7995H39.0695V40.9331Z" fill="white"/>
<path d="M40.9367 40.9331H39.0703V42.7995H40.9367V40.9331Z" fill="white"/>
<path d="M42.8039 40.9331H40.9375V42.7995H42.8039V40.9331Z" fill="white"/>
<path d="M50.2648 40.9331H48.3984V42.7995H50.2648V40.9331Z" fill="white"/>
<path d="M55.8664 40.9331H54V42.7995H55.8664V40.9331Z" fill="white"/>
<path d="M57.7336 40.9331H55.8672V42.7995H57.7336V40.9331Z" fill="white"/>
<path d="M63.3351 40.9331H61.4688V42.7995H63.3351V40.9331Z" fill="white"/>
<path d="M65.2023 40.9331H63.3359V42.7995H65.2023V40.9331Z" fill="white"/>
<path d="M67.0695 40.9331H65.2031V42.7995H67.0695V40.9331Z" fill="white"/>
<path d="M72.6633 40.9331H70.7969V42.7995H72.6633V40.9331Z" fill="white"/>
<path d="M76.3976 40.9331H74.5312V42.7995H76.3976V40.9331Z" fill="white"/>
<path d="M78.2648 40.9331H76.3984V42.7995H78.2648V40.9331Z" fill="white"/>
<path d="M3.60857 42.7996H1.74219V44.6659H3.60857V42.7996Z" fill="white"/>
<path d="M7.34295 42.7996H5.47656V44.6659H7.34295V42.7996Z" fill="white"/>
<path d="M12.9367 42.7996H11.0703V44.6659H12.9367V42.7996Z" fill="white"/>
<path d="M14.8039 42.7996H12.9375V44.6659H14.8039V42.7996Z" fill="white"/>
<path d="M16.6711 42.7996H14.8047V44.6659H16.6711V42.7996Z" fill="white"/>
<path d="M22.2726 42.7996H20.4062V44.6659H22.2726V42.7996Z" fill="white"/>
<path d="M24.1398 42.7996H22.2734V44.6659H24.1398V42.7996Z" fill="white"/>
<path d="M31.6008 42.7996H29.7344V44.6659H31.6008V42.7996Z" fill="white"/>
<path d="M33.4679 42.7996H31.6016V44.6659H33.4679V42.7996Z" fill="white"/>
<path d="M40.9367 42.7996H39.0703V44.6659H40.9367V42.7996Z" fill="white"/>
<path d="M42.8039 42.7996H40.9375V44.6659H42.8039V42.7996Z" fill="white"/>
<path d="M44.6711 42.7996H42.8047V44.6659H44.6711V42.7996Z" fill="white"/>
<path d="M52.132 42.7996H50.2656V44.6659H52.132V42.7996Z" fill="white"/>
<path d="M57.7336 42.7996H55.8672V44.6659H57.7336V42.7996Z" fill="white"/>
<path d="M59.6008 42.7996H57.7344V44.6659H59.6008V42.7996Z" fill="white"/>
<path d="M61.4679 42.7996H59.6016V44.6659H61.4679V42.7996Z" fill="white"/>
<path d="M63.3351 42.7996H61.4688V44.6659H63.3351V42.7996Z" fill="white"/>
<path d="M65.2023 42.7996H63.3359V44.6659H65.2023V42.7996Z" fill="white"/>
<path d="M67.0695 42.7996H65.2031V44.6659H67.0695V42.7996Z" fill="white"/>
<path d="M76.3976 42.7996H74.5312V44.6659H76.3976V42.7996Z" fill="white"/>
<path d="M11.0773 44.666H9.21094V46.5324H11.0773V44.666Z" fill="white"/>
<path d="M24.1398 44.666H22.2734V46.5324H24.1398V44.666Z" fill="white"/>
<path d="M27.8742 44.666H26.0078V46.5324H27.8742V44.666Z" fill="white"/>
<path d="M37.2023 44.666H35.3359V46.5324H37.2023V44.666Z" fill="white"/>
<path d="M39.0695 44.666H37.2031V46.5324H39.0695V44.666Z" fill="white"/>
<path d="M40.9367 44.666H39.0703V46.5324H40.9367V44.666Z" fill="white"/>
<path d="M42.8039 44.666H40.9375V46.5324H42.8039V44.666Z" fill="white"/>
<path d="M44.6711 44.666H42.8047V46.5324H44.6711V44.666Z" fill="white"/>
<path d="M46.5383 44.666H44.6719V46.5324H46.5383V44.666Z" fill="white"/>
<path d="M48.3976 44.666H46.5312V46.5324H48.3976V44.666Z" fill="white"/>
<path d="M50.2648 44.666H48.3984V46.5324H50.2648V44.666Z" fill="white"/>
<path d="M53.9992 44.666H52.1328V46.5324H53.9992V44.666Z" fill="white"/>
<path d="M55.8664 44.666H54V46.5324H55.8664V44.666Z" fill="white"/>
<path d="M63.3351 44.666H61.4688V46.5324H63.3351V44.666Z" fill="white"/>
<path d="M68.9289 44.666H67.0625V46.5324H68.9289V44.666Z" fill="white"/>
<path d="M72.6633 44.666H70.7969V46.5324H72.6633V44.666Z" fill="white"/>
<path d="M74.5304 44.666H72.6641V46.5324H74.5304V44.666Z" fill="white"/>
<path d="M76.3976 44.666H74.5312V46.5324H76.3976V44.666Z" fill="white"/>
<path d="M78.2648 44.666H76.3984V46.5324H78.2648V44.666Z" fill="white"/>
<path d="M3.60857 46.5325H1.74219V48.3989H3.60857V46.5325Z" fill="white"/>
<path d="M9.21013 46.5325H7.34375V48.3989H9.21013V46.5325Z" fill="white"/>
<path d="M12.9367 46.5325H11.0703V48.3989H12.9367V46.5325Z" fill="white"/>
<path d="M14.8039 46.5325H12.9375V48.3989H14.8039V46.5325Z" fill="white"/>
<path d="M16.6711 46.5325H14.8047V48.3989H16.6711V46.5325Z" fill="white"/>
<path d="M26.007 46.5325H24.1406V48.3989H26.007V46.5325Z" fill="white"/>
<path d="M29.7414 46.5325H27.875V48.3989H29.7414V46.5325Z" fill="white"/>
<path d="M35.3351 46.5325H33.4688V48.3989H35.3351V46.5325Z" fill="white"/>
<path d="M39.0695 46.5325H37.2031V48.3989H39.0695V46.5325Z" fill="white"/>
<path d="M40.9367 46.5325H39.0703V48.3989H40.9367V46.5325Z" fill="white"/>
<path d="M42.8039 46.5325H40.9375V48.3989H42.8039V46.5325Z" fill="white"/>
<path d="M46.5383 46.5325H44.6719V48.3989H46.5383V46.5325Z" fill="white"/>
<path d="M48.3976 46.5325H46.5312V48.3989H48.3976V46.5325Z" fill="white"/>
<path d="M50.2648 46.5325H48.3984V48.3989H50.2648V46.5325Z" fill="white"/>
<path d="M57.7336 46.5325H55.8672V48.3989H57.7336V46.5325Z" fill="white"/>
<path d="M63.3351 46.5325H61.4688V48.3989H63.3351V46.5325Z" fill="white"/>
<path d="M65.2023 46.5325H63.3359V48.3989H65.2023V46.5325Z" fill="white"/>
<path d="M67.0695 46.5325H65.2031V48.3989H67.0695V46.5325Z" fill="white"/>
<path d="M68.9289 46.5325H67.0625V48.3989H68.9289V46.5325Z" fill="white"/>
<path d="M20.4054 48.3987H18.5391V50.2651H20.4054V48.3987Z" fill="white"/>
<path d="M22.2726 48.3987H20.4062V50.2651H22.2726V48.3987Z" fill="white"/>
<path d="M24.1398 48.3987H22.2734V50.2651H24.1398V48.3987Z" fill="white"/>
<path d="M26.007 48.3987H24.1406V50.2651H26.007V48.3987Z" fill="white"/>
<path d="M27.8742 48.3987H26.0078V50.2651H27.8742V48.3987Z" fill="white"/>
<path d="M29.7414 48.3987H27.875V50.2651H29.7414V48.3987Z" fill="white"/>
<path d="M31.6008 48.3987H29.7344V50.2651H31.6008V48.3987Z" fill="white"/>
<path d="M37.2023 48.3987H35.3359V50.2651H37.2023V48.3987Z" fill="white"/>
<path d="M39.0695 48.3987H37.2031V50.2651H39.0695V48.3987Z" fill="white"/>
<path d="M40.9367 48.3987H39.0703V50.2651H40.9367V48.3987Z" fill="white"/>
<path d="M42.8039 48.3987H40.9375V50.2651H42.8039V48.3987Z" fill="white"/>
<path d="M50.2648 48.3987H48.3984V50.2651H50.2648V48.3987Z" fill="white"/>
<path d="M52.132 48.3987H50.2656V50.2651H52.132V48.3987Z" fill="white"/>
<path d="M57.7336 48.3987H55.8672V50.2651H57.7336V48.3987Z" fill="white"/>
<path d="M61.4679 48.3987H59.6016V50.2651H61.4679V48.3987Z" fill="white"/>
<path d="M65.2023 48.3987H63.3359V50.2651H65.2023V48.3987Z" fill="white"/>
<path d="M68.9289 48.3987H67.0625V50.2651H68.9289V48.3987Z" fill="white"/>
<path d="M72.6633 48.3987H70.7969V50.2651H72.6633V48.3987Z" fill="white"/>
<path d="M76.3976 48.3987H74.5312V50.2651H76.3976V48.3987Z" fill="white"/>
<path d="M5.47576 50.2651H3.60938V52.1315H5.47576V50.2651Z" fill="white"/>
<path d="M12.9367 50.2651H11.0703V52.1315H12.9367V50.2651Z" fill="white"/>
<path d="M14.8039 50.2651H12.9375V52.1315H14.8039V50.2651Z" fill="white"/>
<path d="M16.6711 50.2651H14.8047V52.1315H16.6711V50.2651Z" fill="white"/>
<path d="M27.8742 50.2651H26.0078V52.1315H27.8742V50.2651Z" fill="white"/>
<path d="M31.6008 50.2651H29.7344V52.1315H31.6008V50.2651Z" fill="white"/>
<path d="M40.9367 50.2651H39.0703V52.1315H40.9367V50.2651Z" fill="white"/>
<path d="M46.5383 50.2651H44.6719V52.1315H46.5383V50.2651Z" fill="white"/>
<path d="M50.2648 50.2651H48.3984V52.1315H50.2648V50.2651Z" fill="white"/>
<path d="M52.132 50.2651H50.2656V52.1315H52.132V50.2651Z" fill="white"/>
<path d="M59.6008 50.2651H57.7344V52.1315H59.6008V50.2651Z" fill="white"/>
<path d="M63.3351 50.2651H61.4688V52.1315H63.3351V50.2651Z" fill="white"/>
<path d="M67.0695 50.2651H65.2031V52.1315H67.0695V50.2651Z" fill="white"/>
<path d="M70.7961 50.2651H68.9297V52.1315H70.7961V50.2651Z" fill="white"/>
<path d="M76.3976 50.2651H74.5312V52.1315H76.3976V50.2651Z" fill="white"/>
<path d="M78.2648 50.2651H76.3984V52.1315H78.2648V50.2651Z" fill="white"/>
<path d="M3.60857 52.1316H1.74219V53.998H3.60857V52.1316Z" fill="white"/>
<path d="M5.47576 52.1316H3.60938V53.998H5.47576V52.1316Z" fill="white"/>
<path d="M11.0773 52.1316H9.21094V53.998H11.0773V52.1316Z" fill="white"/>
<path d="M12.9367 52.1316H11.0703V53.998H12.9367V52.1316Z" fill="white"/>
<path d="M16.6711 52.1316H14.8047V53.998H16.6711V52.1316Z" fill="white"/>
<path d="M22.2726 52.1316H20.4062V53.998H22.2726V52.1316Z" fill="white"/>
<path d="M26.007 52.1316H24.1406V53.998H26.007V52.1316Z" fill="white"/>
<path d="M33.4679 52.1316H31.6016V53.998H33.4679V52.1316Z" fill="white"/>
<path d="M35.3351 52.1316H33.4688V53.998H35.3351V52.1316Z" fill="white"/>
<path d="M39.0695 52.1316H37.2031V53.998H39.0695V52.1316Z" fill="white"/>
<path d="M42.8039 52.1316H40.9375V53.998H42.8039V52.1316Z" fill="white"/>
<path d="M44.6711 52.1316H42.8047V53.998H44.6711V52.1316Z" fill="white"/>
<path d="M46.5383 52.1316H44.6719V53.998H46.5383V52.1316Z" fill="white"/>
<path d="M48.3976 52.1316H46.5312V53.998H48.3976V52.1316Z" fill="white"/>
<path d="M50.2648 52.1316H48.3984V53.998H50.2648V52.1316Z" fill="white"/>
<path d="M52.132 52.1316H50.2656V53.998H52.132V52.1316Z" fill="white"/>
<path d="M57.7336 52.1316H55.8672V53.998H57.7336V52.1316Z" fill="white"/>
<path d="M59.6008 52.1316H57.7344V53.998H59.6008V52.1316Z" fill="white"/>
<path d="M63.3351 52.1316H61.4688V53.998H63.3351V52.1316Z" fill="white"/>
<path d="M65.2023 52.1316H63.3359V53.998H65.2023V52.1316Z" fill="white"/>
<path d="M67.0695 52.1316H65.2031V53.998H67.0695V52.1316Z" fill="white"/>
<path d="M70.7961 52.1316H68.9297V53.998H70.7961V52.1316Z" fill="white"/>
<path d="M78.2648 52.1316H76.3984V53.998H78.2648V52.1316Z" fill="white"/>
<path d="M7.34295 53.9978H5.47656V55.8642H7.34295V53.9978Z" fill="white"/>
<path d="M11.0773 53.9978H9.21094V55.8642H11.0773V53.9978Z" fill="white"/>
<path d="M12.9367 53.9978H11.0703V55.8642H12.9367V53.9978Z" fill="white"/>
<path d="M14.8039 53.9978H12.9375V55.8642H14.8039V53.9978Z" fill="white"/>
<path d="M16.6711 53.9978H14.8047V55.8642H16.6711V53.9978Z" fill="white"/>
<path d="M26.007 53.9978H24.1406V55.8642H26.007V53.9978Z" fill="white"/>
<path d="M27.8742 53.9978H26.0078V55.8642H27.8742V53.9978Z" fill="white"/>
<path d="M29.7414 53.9978H27.875V55.8642H29.7414V53.9978Z" fill="white"/>
<path d="M35.3351 53.9978H33.4688V55.8642H35.3351V53.9978Z" fill="white"/>
<path d="M40.9367 53.9978H39.0703V55.8642H40.9367V53.9978Z" fill="white"/>
<path d="M46.5383 53.9978H44.6719V55.8642H46.5383V53.9978Z" fill="white"/>
<path d="M48.3976 53.9978H46.5312V55.8642H48.3976V53.9978Z" fill="white"/>
<path d="M57.7336 53.9978H55.8672V55.8642H57.7336V53.9978Z" fill="white"/>
<path d="M65.2023 53.9978H63.3359V55.8642H65.2023V53.9978Z" fill="white"/>
<path d="M5.47576 55.8643H3.60938V57.7306H5.47576V55.8643Z" fill="white"/>
<path d="M7.34295 55.8643H5.47656V57.7306H7.34295V55.8643Z" fill="white"/>
<path d="M18.5383 55.8643H16.6719V57.7306H18.5383V55.8643Z" fill="white"/>
<path d="M20.4054 55.8643H18.5391V57.7306H20.4054V55.8643Z" fill="white"/>
<path d="M26.007 55.8643H24.1406V57.7306H26.007V55.8643Z" fill="white"/>
<path d="M29.7414 55.8643H27.875V57.7306H29.7414V55.8643Z" fill="white"/>
<path d="M33.4679 55.8643H31.6016V57.7306H33.4679V55.8643Z" fill="white"/>
<path d="M37.2023 55.8643H35.3359V57.7306H37.2023V55.8643Z" fill="white"/>
<path d="M39.0695 55.8643H37.2031V57.7306H39.0695V55.8643Z" fill="white"/>
<path d="M46.5383 55.8643H44.6719V57.7306H46.5383V55.8643Z" fill="white"/>
<path d="M48.3976 55.8643H46.5312V57.7306H48.3976V55.8643Z" fill="white"/>
<path d="M52.132 55.8643H50.2656V57.7306H52.132V55.8643Z" fill="white"/>
<path d="M55.8664 55.8643H54V57.7306H55.8664V55.8643Z" fill="white"/>
<path d="M67.0695 55.8643H65.2031V57.7306H67.0695V55.8643Z" fill="white"/>
<path d="M68.9289 55.8643H67.0625V57.7306H68.9289V55.8643Z" fill="white"/>
<path d="M76.3976 55.8643H74.5312V57.7306H76.3976V55.8643Z" fill="white"/>
<path d="M78.2648 55.8643H76.3984V57.7306H78.2648V55.8643Z" fill="white"/>
<path d="M3.60857 57.7307H1.74219V59.5971H3.60857V57.7307Z" fill="white"/>
<path d="M9.21013 57.7307H7.34375V59.5971H9.21013V57.7307Z" fill="white"/>
<path d="M11.0773 57.7307H9.21094V59.5971H11.0773V57.7307Z" fill="white"/>
<path d="M14.8039 57.7307H12.9375V59.5971H14.8039V57.7307Z" fill="white"/>
<path d="M16.6711 57.7307H14.8047V59.5971H16.6711V57.7307Z" fill="white"/>
<path d="M20.4054 57.7307H18.5391V59.5971H20.4054V57.7307Z" fill="white"/>
<path d="M22.2726 57.7307H20.4062V59.5971H22.2726V57.7307Z" fill="white"/>
<path d="M24.1398 57.7307H22.2734V59.5971H24.1398V57.7307Z" fill="white"/>
<path d="M26.007 57.7307H24.1406V59.5971H26.007V57.7307Z" fill="white"/>
<path d="M27.8742 57.7307H26.0078V59.5971H27.8742V57.7307Z" fill="white"/>
<path d="M33.4679 57.7307H31.6016V59.5971H33.4679V57.7307Z" fill="white"/>
<path d="M35.3351 57.7307H33.4688V59.5971H35.3351V57.7307Z" fill="white"/>
<path d="M39.0695 57.7307H37.2031V59.5971H39.0695V57.7307Z" fill="white"/>
<path d="M40.9367 57.7307H39.0703V59.5971H40.9367V57.7307Z" fill="white"/>
<path d="M42.8039 57.7307H40.9375V59.5971H42.8039V57.7307Z" fill="white"/>
<path d="M48.3976 57.7307H46.5312V59.5971H48.3976V57.7307Z" fill="white"/>
<path d="M50.2648 57.7307H48.3984V59.5971H50.2648V57.7307Z" fill="white"/>
<path d="M59.6008 57.7307H57.7344V59.5971H59.6008V57.7307Z" fill="white"/>
<path d="M70.7961 57.7307H68.9297V59.5971H70.7961V57.7307Z" fill="white"/>
<path d="M76.3976 57.7307H74.5312V59.5971H76.3976V57.7307Z" fill="white"/>
<path d="M78.2648 57.7307H76.3984V59.5971H78.2648V57.7307Z" fill="white"/>
<path d="M12.9367 59.5969H11.0703V61.4633H12.9367V59.5969Z" fill="white"/>
<path d="M16.6711 59.5969H14.8047V61.4633H16.6711V59.5969Z" fill="white"/>
<path d="M22.2726 59.5969H20.4062V61.4633H22.2726V59.5969Z" fill="white"/>
<path d="M24.1398 59.5969H22.2734V61.4633H24.1398V59.5969Z" fill="white"/>
<path d="M33.4679 59.5969H31.6016V61.4633H33.4679V59.5969Z" fill="white"/>
<path d="M37.2023 59.5969H35.3359V61.4633H37.2023V59.5969Z" fill="white"/>
<path d="M39.0695 59.5969H37.2031V61.4633H39.0695V59.5969Z" fill="white"/>
<path d="M44.6711 59.5969H42.8047V61.4633H44.6711V59.5969Z" fill="white"/>
<path d="M52.132 59.5969H50.2656V61.4633H52.132V59.5969Z" fill="white"/>
<path d="M57.7336 59.5969H55.8672V61.4633H57.7336V59.5969Z" fill="white"/>
<path d="M59.6008 59.5969H57.7344V61.4633H59.6008V59.5969Z" fill="white"/>
<path d="M61.4679 59.5969H59.6016V61.4633H61.4679V59.5969Z" fill="white"/>
<path d="M65.2023 59.5969H63.3359V61.4633H65.2023V59.5969Z" fill="white"/>
<path d="M72.6633 59.5969H70.7969V61.4633H72.6633V59.5969Z" fill="white"/>
<path d="M3.60857 61.4634H1.74219V63.3298H3.60857V61.4634Z" fill="white"/>
<path d="M9.21013 61.4634H7.34375V63.3298H9.21013V61.4634Z" fill="white"/>
<path d="M11.0773 61.4634H9.21094V63.3298H11.0773V61.4634Z" fill="white"/>
<path d="M12.9367 61.4634H11.0703V63.3298H12.9367V61.4634Z" fill="white"/>
<path d="M14.8039 61.4634H12.9375V63.3298H14.8039V61.4634Z" fill="white"/>
<path d="M16.6711 61.4634H14.8047V63.3298H16.6711V61.4634Z" fill="white"/>
<path d="M18.5383 61.4634H16.6719V63.3298H18.5383V61.4634Z" fill="white"/>
<path d="M20.4054 61.4634H18.5391V63.3298H20.4054V61.4634Z" fill="white"/>
<path d="M27.8742 61.4634H26.0078V63.3298H27.8742V61.4634Z" fill="white"/>
<path d="M31.6008 61.4634H29.7344V63.3298H31.6008V61.4634Z" fill="white"/>
<path d="M37.2023 61.4634H35.3359V63.3298H37.2023V61.4634Z" fill="white"/>
<path d="M46.5383 61.4634H44.6719V63.3298H46.5383V61.4634Z" fill="white"/>
<path d="M50.2648 61.4634H48.3984V63.3298H50.2648V61.4634Z" fill="white"/>
<path d="M52.132 61.4634H50.2656V63.3298H52.132V61.4634Z" fill="white"/>
<path d="M55.8664 61.4634H54V63.3298H55.8664V61.4634Z" fill="white"/>
<path d="M63.3351 61.4634H61.4688V63.3298H63.3351V61.4634Z" fill="white"/>
<path d="M65.2023 61.4634H63.3359V63.3298H65.2023V61.4634Z" fill="white"/>
<path d="M67.0695 61.4634H65.2031V63.3298H67.0695V61.4634Z" fill="white"/>
<path d="M68.9289 61.4634H67.0625V63.3298H68.9289V61.4634Z" fill="white"/>
<path d="M70.7961 61.4634H68.9297V63.3298H70.7961V61.4634Z" fill="white"/>
<path d="M74.5304 61.4634H72.6641V63.3298H74.5304V61.4634Z" fill="white"/>
<path d="M76.3976 61.4634H74.5312V63.3298H76.3976V61.4634Z" fill="white"/>
<path d="M18.5383 63.3298H16.6719V65.1962H18.5383V63.3298Z" fill="white"/>
<path d="M22.2726 63.3298H20.4062V65.1962H22.2726V63.3298Z" fill="white"/>
<path d="M26.007 63.3298H24.1406V65.1962H26.007V63.3298Z" fill="white"/>
<path d="M35.3351 63.3298H33.4688V65.1962H35.3351V63.3298Z" fill="white"/>
<path d="M39.0695 63.3298H37.2031V65.1962H39.0695V63.3298Z" fill="white"/>
<path d="M48.3976 63.3298H46.5312V65.1962H48.3976V63.3298Z" fill="white"/>
<path d="M50.2648 63.3298H48.3984V65.1962H50.2648V63.3298Z" fill="white"/>
<path d="M52.132 63.3298H50.2656V65.1962H52.132V63.3298Z" fill="white"/>
<path d="M55.8664 63.3298H54V65.1962H55.8664V63.3298Z" fill="white"/>
<path d="M57.7336 63.3298H55.8672V65.1962H57.7336V63.3298Z" fill="white"/>
<path d="M61.4679 63.3298H59.6016V65.1962H61.4679V63.3298Z" fill="white"/>
<path d="M63.3351 63.3298H61.4688V65.1962H63.3351V63.3298Z" fill="white"/>
<path d="M70.7961 63.3298H68.9297V65.1962H70.7961V63.3298Z" fill="white"/>
<path d="M74.5304 63.3298H72.6641V65.1962H74.5304V63.3298Z" fill="white"/>
<path d="M78.2648 63.3298H76.3984V65.1962H78.2648V63.3298Z" fill="white"/>
<path d="M18.5383 65.196H16.6719V67.0624H18.5383V65.196Z" fill="white"/>
<path d="M22.2726 65.196H20.4062V67.0624H22.2726V65.196Z" fill="white"/>
<path d="M26.007 65.196H24.1406V67.0624H26.007V65.196Z" fill="white"/>
<path d="M35.3351 65.196H33.4688V67.0624H35.3351V65.196Z" fill="white"/>
<path d="M39.0695 65.196H37.2031V67.0624H39.0695V65.196Z" fill="white"/>
<path d="M42.8039 65.196H40.9375V67.0624H42.8039V65.196Z" fill="white"/>
<path d="M44.6711 65.196H42.8047V67.0624H44.6711V65.196Z" fill="white"/>
<path d="M50.2648 65.196H48.3984V67.0624H50.2648V65.196Z" fill="white"/>
<path d="M52.132 65.196H50.2656V67.0624H52.132V65.196Z" fill="white"/>
<path d="M59.6008 65.196H57.7344V67.0624H59.6008V65.196Z" fill="white"/>
<path d="M63.3351 65.196H61.4688V67.0624H63.3351V65.196Z" fill="white"/>
<path d="M67.0695 65.196H65.2031V67.0624H67.0695V65.196Z" fill="white"/>
<path d="M70.7961 65.196H68.9297V67.0624H70.7961V65.196Z" fill="white"/>
<path d="M76.3976 65.196H74.5312V67.0624H76.3976V65.196Z" fill="white"/>
<path d="M18.5383 67.0625H16.6719V68.9289H18.5383V67.0625Z" fill="white"/>
<path d="M20.4054 67.0625H18.5391V68.9289H20.4054V67.0625Z" fill="white"/>
<path d="M27.8742 67.0625H26.0078V68.9289H27.8742V67.0625Z" fill="white"/>
<path d="M29.7414 67.0625H27.875V68.9289H29.7414V67.0625Z" fill="white"/>
<path d="M44.6711 67.0625H42.8047V68.9289H44.6711V67.0625Z" fill="white"/>
<path d="M48.3976 67.0625H46.5312V68.9289H48.3976V67.0625Z" fill="white"/>
<path d="M50.2648 67.0625H48.3984V68.9289H50.2648V67.0625Z" fill="white"/>
<path d="M53.9992 67.0625H52.1328V68.9289H53.9992V67.0625Z" fill="white"/>
<path d="M55.8664 67.0625H54V68.9289H55.8664V67.0625Z" fill="white"/>
<path d="M59.6008 67.0625H57.7344V68.9289H59.6008V67.0625Z" fill="white"/>
<path d="M63.3351 67.0625H61.4688V68.9289H63.3351V67.0625Z" fill="white"/>
<path d="M70.7961 67.0625H68.9297V68.9289H70.7961V67.0625Z" fill="white"/>
<path d="M74.5304 67.0625H72.6641V68.9289H74.5304V67.0625Z" fill="white"/>
<path d="M76.3976 67.0625H74.5312V68.9289H76.3976V67.0625Z" fill="white"/>
<path d="M78.2648 67.0625H76.3984V68.9289H78.2648V67.0625Z" fill="white"/>
<path d="M22.2726 68.929H20.4062V70.7953H22.2726V68.929Z" fill="white"/>
<path d="M24.1398 68.929H22.2734V70.7953H24.1398V68.929Z" fill="white"/>
<path d="M33.4679 68.929H31.6016V70.7953H33.4679V68.929Z" fill="white"/>
<path d="M35.3351 68.929H33.4688V70.7953H35.3351V68.929Z" fill="white"/>
<path d="M37.2023 68.929H35.3359V70.7953H37.2023V68.929Z" fill="white"/>
<path d="M39.0695 68.929H37.2031V70.7953H39.0695V68.929Z" fill="white"/>
<path d="M40.9367 68.929H39.0703V70.7953H40.9367V68.929Z" fill="white"/>
<path d="M42.8039 68.929H40.9375V70.7953H42.8039V68.929Z" fill="white"/>
<path d="M44.6711 68.929H42.8047V70.7953H44.6711V68.929Z" fill="white"/>
<path d="M48.3976 68.929H46.5312V70.7953H48.3976V68.929Z" fill="white"/>
<path d="M50.2648 68.929H48.3984V70.7953H50.2648V68.929Z" fill="white"/>
<path d="M53.9992 68.929H52.1328V70.7953H53.9992V68.929Z" fill="white"/>
<path d="M57.7336 68.929H55.8672V70.7953H57.7336V68.929Z" fill="white"/>
<path d="M63.3351 68.929H61.4688V70.7953H63.3351V68.929Z" fill="white"/>
<path d="M65.2023 68.929H63.3359V70.7953H65.2023V68.929Z" fill="white"/>
<path d="M67.0695 68.929H65.2031V70.7953H67.0695V68.929Z" fill="white"/>
<path d="M68.9289 68.929H67.0625V70.7953H68.9289V68.929Z" fill="white"/>
<path d="M70.7961 68.929H68.9297V70.7953H70.7961V68.929Z" fill="white"/>
<path d="M76.3976 68.929H74.5312V70.7953H76.3976V68.929Z" fill="white"/>
<path d="M18.5383 70.7954H16.6719V72.6618H18.5383V70.7954Z" fill="white"/>
<path d="M20.4054 70.7954H18.5391V72.6618H20.4054V70.7954Z" fill="white"/>
<path d="M22.2726 70.7954H20.4062V72.6618H22.2726V70.7954Z" fill="white"/>
<path d="M26.007 70.7954H24.1406V72.6618H26.007V70.7954Z" fill="white"/>
<path d="M27.8742 70.7954H26.0078V72.6618H27.8742V70.7954Z" fill="white"/>
<path d="M33.4679 70.7954H31.6016V72.6618H33.4679V70.7954Z" fill="white"/>
<path d="M35.3351 70.7954H33.4688V72.6618H35.3351V70.7954Z" fill="white"/>
<path d="M37.2023 70.7954H35.3359V72.6618H37.2023V70.7954Z" fill="white"/>
<path d="M39.0695 70.7954H37.2031V72.6618H39.0695V70.7954Z" fill="white"/>
<path d="M40.9367 70.7954H39.0703V72.6618H40.9367V70.7954Z" fill="white"/>
<path d="M42.8039 70.7954H40.9375V72.6618H42.8039V70.7954Z" fill="white"/>
<path d="M44.6711 70.7954H42.8047V72.6618H44.6711V70.7954Z" fill="white"/>
<path d="M52.132 70.7954H50.2656V72.6618H52.132V70.7954Z" fill="white"/>
<path d="M57.7336 70.7954H55.8672V72.6618H57.7336V70.7954Z" fill="white"/>
<path d="M61.4679 70.7954H59.6016V72.6618H61.4679V70.7954Z" fill="white"/>
<path d="M65.2023 70.7954H63.3359V72.6618H65.2023V70.7954Z" fill="white"/>
<path d="M67.0695 70.7954H65.2031V72.6618H67.0695V70.7954Z" fill="white"/>
<path d="M70.7961 70.7954H68.9297V72.6618H70.7961V70.7954Z" fill="white"/>
<path d="M72.6633 70.7954H70.7969V72.6618H72.6633V70.7954Z" fill="white"/>
<path d="M74.5304 70.7954H72.6641V72.6618H74.5304V70.7954Z" fill="white"/>
<path d="M76.3976 70.7954H74.5312V72.6618H76.3976V70.7954Z" fill="white"/>
<path d="M78.2648 70.7954H76.3984V72.6618H78.2648V70.7954Z" fill="white"/>
<path d="M31.6008 72.6616H29.7344V74.528H31.6008V72.6616Z" fill="white"/>
<path d="M33.4679 72.6616H31.6016V74.528H33.4679V72.6616Z" fill="white"/>
<path d="M39.0695 72.6616H37.2031V74.528H39.0695V72.6616Z" fill="white"/>
<path d="M40.9367 72.6616H39.0703V74.528H40.9367V72.6616Z" fill="white"/>
<path d="M42.8039 72.6616H40.9375V74.528H42.8039V72.6616Z" fill="white"/>
<path d="M46.5383 72.6616H44.6719V74.528H46.5383V72.6616Z" fill="white"/>
<path d="M52.132 72.6616H50.2656V74.528H52.132V72.6616Z" fill="white"/>
<path d="M57.7336 72.6616H55.8672V74.528H57.7336V72.6616Z" fill="white"/>
<path d="M59.6008 72.6616H57.7344V74.528H59.6008V72.6616Z" fill="white"/>
<path d="M70.7961 72.6616H68.9297V74.528H70.7961V72.6616Z" fill="white"/>
<path d="M72.6633 72.6616H70.7969V74.528H72.6633V72.6616Z" fill="white"/>
<path d="M76.3976 72.6616H74.5312V74.528H76.3976V72.6616Z" fill="white"/>
<path d="M78.2648 72.6616H76.3984V74.528H78.2648V72.6616Z" fill="white"/>
<path d="M18.5383 74.5281H16.6719V76.3945H18.5383V74.5281Z" fill="white"/>
<path d="M22.2726 74.5281H20.4062V76.3945H22.2726V74.5281Z" fill="white"/>
<path d="M24.1398 74.5281H22.2734V76.3945H24.1398V74.5281Z" fill="white"/>
<path d="M29.7414 74.5281H27.875V76.3945H29.7414V74.5281Z" fill="white"/>
<path d="M31.6008 74.5281H29.7344V76.3945H31.6008V74.5281Z" fill="white"/>
<path d="M33.4679 74.5281H31.6016V76.3945H33.4679V74.5281Z" fill="white"/>
<path d="M35.3351 74.5281H33.4688V76.3945H35.3351V74.5281Z" fill="white"/>
<path d="M39.0695 74.5281H37.2031V76.3945H39.0695V74.5281Z" fill="white"/>
<path d="M44.6711 74.5281H42.8047V76.3945H44.6711V74.5281Z" fill="white"/>
<path d="M48.3976 74.5281H46.5312V76.3945H48.3976V74.5281Z" fill="white"/>
<path d="M50.2648 74.5281H48.3984V76.3945H50.2648V74.5281Z" fill="white"/>
<path d="M52.132 74.5281H50.2656V76.3945H52.132V74.5281Z" fill="white"/>
<path d="M53.9992 74.5281H52.1328V76.3945H53.9992V74.5281Z" fill="white"/>
<path d="M57.7336 74.5281H55.8672V76.3945H57.7336V74.5281Z" fill="white"/>
<path d="M59.6008 74.5281H57.7344V76.3945H59.6008V74.5281Z" fill="white"/>
<path d="M63.3351 74.5281H61.4688V76.3945H63.3351V74.5281Z" fill="white"/>
<path d="M67.0695 74.5281H65.2031V76.3945H67.0695V74.5281Z" fill="white"/>
<path d="M68.9289 74.5281H67.0625V76.3945H68.9289V74.5281Z" fill="white"/>
<path d="M76.3976 74.5281H74.5312V76.3945H76.3976V74.5281Z" fill="white"/>
<path d="M22.2726 76.3945H20.4062V78.2609H22.2726V76.3945Z" fill="white"/>
<path d="M24.1398 76.3945H22.2734V78.2609H24.1398V76.3945Z" fill="white"/>
<path d="M26.007 76.3945H24.1406V78.2609H26.007V76.3945Z" fill="white"/>
<path d="M27.8742 76.3945H26.0078V78.2609H27.8742V76.3945Z" fill="white"/>
<path d="M33.4679 76.3945H31.6016V78.2609H33.4679V76.3945Z" fill="white"/>
<path d="M35.3351 76.3945H33.4688V78.2609H35.3351V76.3945Z" fill="white"/>
<path d="M37.2023 76.3945H35.3359V78.2609H37.2023V76.3945Z" fill="white"/>
<path d="M39.0695 76.3945H37.2031V78.2609H39.0695V76.3945Z" fill="white"/>
<path d="M44.6711 76.3945H42.8047V78.2609H44.6711V76.3945Z" fill="white"/>
<path d="M48.3976 76.3945H46.5312V78.2609H48.3976V76.3945Z" fill="white"/>
<path d="M57.7336 76.3945H55.8672V78.2609H57.7336V76.3945Z" fill="white"/>
<path d="M63.3351 76.3945H61.4688V78.2609H63.3351V76.3945Z" fill="white"/>
<path d="M67.0695 76.3945H65.2031V78.2609H67.0695V76.3945Z" fill="white"/>
<path d="M68.9289 76.3945H67.0625V78.2609H68.9289V76.3945Z" fill="white"/>
<path d="M70.7961 76.3945H68.9297V78.2609H70.7961V76.3945Z" fill="white"/>
<path d="M72.6633 76.3945H70.7969V78.2609H72.6633V76.3945Z" fill="white"/>
<path d="M76.3976 76.3945H74.5312V78.2609H76.3976V76.3945Z" fill="white"/>
</mask>
<g mask="url(#mask1_652_13577)">
<path d="M80 0H0V80H80V0Z" fill="#1E1826"/>
</g>
<mask id="mask2_652_13577" style="mask-type:luminance" maskUnits="userSpaceOnUse" x="1" y="1" width="14" height="14">
<path fill-rule="evenodd" clip-rule="evenodd" d="M1.74219 1.73901V14.8037H14.8069V1.73901H1.74219ZM3.60857 3.6054H12.9405V12.9373H3.60857V3.6054Z" fill="white"/>
</mask>
<g mask="url(#mask2_652_13577)">
<path d="M14.8069 1.73901H1.74219V14.8037H14.8069V1.73901Z" fill="#1E1826"/>
</g>
<mask id="mask3_652_13577" style="mask-type:luminance" maskUnits="userSpaceOnUse" x="5" y="5" width="7" height="7">
<path d="M11.0679 5.47192H5.46875V11.0711H11.0679V5.47192Z" fill="white"/>
</mask>
<g mask="url(#mask3_652_13577)">
<path d="M11.0679 5.47192H5.46875V11.0711H11.0679V5.47192Z" fill="#1E1826"/>
</g>
<mask id="mask4_652_13577" style="mask-type:luminance" maskUnits="userSpaceOnUse" x="65" y="1" width="14" height="14">
<path fill-rule="evenodd" clip-rule="evenodd" d="M78.2656 1.73901L65.2009 1.73901V14.8037H78.2656V1.73901ZM76.3992 3.60539V12.9373H67.0673V3.60539L76.3992 3.60539Z" fill="white"/>
</mask>
<g mask="url(#mask4_652_13577)">
<path d="M78.26 1.73901H65.1953V14.8037H78.26V1.73901Z" fill="#1E1826"/>
</g>
<mask id="mask5_652_13577" style="mask-type:luminance" maskUnits="userSpaceOnUse" x="68" y="5" width="7" height="7">
<path d="M74.5234 11.0711V5.47192H68.9243V11.0711H74.5234Z" fill="white"/>
</mask>
<g mask="url(#mask5_652_13577)">
<path d="M74.5288 5.47192H68.9297V11.0711H74.5288V5.47192Z" fill="#1E1826"/>
</g>
<mask id="mask6_652_13577" style="mask-type:luminance" maskUnits="userSpaceOnUse" x="1" y="65" width="14" height="14">
<path fill-rule="evenodd" clip-rule="evenodd" d="M1.74219 78.261H14.8069V65.1963H1.74219L1.74219 78.261ZM3.60857 76.3946L3.60857 67.0627H12.9405V76.3946H3.60857Z" fill="white"/>
</mask>
<g mask="url(#mask6_652_13577)">
<path d="M14.8069 65.196H1.74219V78.2607H14.8069V65.196Z" fill="#1E1826"/>
</g>
<mask id="mask7_652_13577" style="mask-type:luminance" maskUnits="userSpaceOnUse" x="5" y="68" width="7" height="7">
<path d="M5.46875 68.9289V74.5281H11.0679V68.9289H5.46875Z" fill="white"/>
</mask>
<g mask="url(#mask7_652_13577)">
<path d="M11.0679 68.929H5.46875V74.5281H11.0679V68.929Z" fill="#1E1826"/>
</g>
</svg>
