<svg width="13" height="13" viewBox="0 0 13 13" fill="none" xmlns="http://www.w3.org/2000/svg">
<path d="M0.0983851 5.39373C-0.0928804 5.20825 0.0110154 4.87293 0.269718 4.84076L3.93541 4.38481C4.04084 4.3717 4.13243 4.30227 4.1769 4.20117L5.72303 0.686079C5.83215 0.438005 6.16845 0.437958 6.27757 0.686031L7.82371 4.20109C7.86818 4.3022 7.95916 4.37182 8.0646 4.38493L11.7305 4.84076C11.9892 4.87293 12.0928 5.20835 11.9015 5.39383L9.1917 8.02223C9.11374 8.09783 9.07904 8.21035 9.09973 8.31956L9.81891 12.1163C9.86969 12.3843 9.59775 12.5919 9.37042 12.4584L6.14939 10.5672C6.05674 10.5128 5.94418 10.5131 5.85153 10.5675L2.63016 12.458C2.40283 12.5914 2.1304 12.3843 2.18117 12.1163L2.90047 8.31979C2.92116 8.21059 2.88654 8.0978 2.80859 8.02221L0.0983851 5.39373Z" stroke="#6B6B6B" stroke-linecap="round" stroke-linejoin="round"/>
</svg>
