<svg width="30" height="22" viewBox="0 0 30 22" fill="none" xmlns="http://www.w3.org/2000/svg">
<path d="M29 7.8002V4.2002C29 3.08009 29 2.51962 28.782 2.0918C28.5903 1.71547 28.2845 1.40973 27.9082 1.21799C27.4804 1 26.9199 1 25.7998 1H22.1998C21.0797 1 20.5204 1 20.0926 1.21799C19.7163 1.40973 19.4095 1.71547 19.2178 2.0918C19 2.5192 19 3.07901 19 4.19692V11.0002L25.8031 11C26.921 11 27.4808 11 27.9082 10.7822C28.2845 10.5905 28.5903 10.2837 28.782 9.90739C29 9.47957 29 8.9203 29 7.8002Z" fill="white"/>
<path d="M11 7.8002V4.2002C11 3.08009 11 2.51962 10.782 2.0918C10.5903 1.71547 10.2845 1.40973 9.9082 1.21799C9.48038 1 8.91991 1 7.7998 1H4.1998C3.0797 1 2.52043 1 2.09261 1.21799C1.71628 1.40973 1.40952 1.71547 1.21777 2.0918C1 2.5192 1 3.07902 1 4.19694V11.0002L7.80309 11C8.921 11 9.4808 11 9.9082 10.7822C10.2845 10.5905 10.5903 10.2837 10.782 9.90739C11 9.47957 11 8.9203 11 7.8002Z" fill="white"/>
<path d="M7 21C3.68629 21 1 18.3137 1 15V11.0002M1 11.0002V4.19694C1 3.07902 1 2.5192 1.21777 2.0918C1.40952 1.71547 1.71628 1.40973 2.09261 1.21799C2.52043 1 3.0797 1 4.1998 1H7.7998C8.91991 1 9.48038 1 9.9082 1.21799C10.2845 1.40973 10.5903 1.71547 10.782 2.0918C11 2.51962 11 3.08009 11 4.2002V7.8002C11 8.9203 11 9.47957 10.782 9.90739C10.5903 10.2837 10.2845 10.5905 9.9082 10.7822C9.4808 11 8.921 11 7.80309 11L1 11.0002ZM25 21C21.6863 21 19 18.3137 19 15L19 11.0002M19 11.0002V4.19692C19 3.07901 19 2.5192 19.2178 2.0918C19.4095 1.71547 19.7163 1.40973 20.0926 1.21799C20.5204 1 21.0797 1 22.1998 1H25.7998C26.9199 1 27.4804 1 27.9082 1.21799C28.2845 1.40973 28.5903 1.71547 28.782 2.0918C29 2.51962 29 3.08009 29 4.2002V7.8002C29 8.9203 29 9.47957 28.782 9.90739C28.5903 10.2837 28.2845 10.5905 27.9082 10.7822C27.4808 11 26.921 11 25.8031 11L19 11.0002Z" stroke="white" stroke-width="2" stroke-linecap="round" stroke-linejoin="round"/>
</svg>
